<svg width="240" height="60" viewBox="0 0 240 60" fill="none" xmlns="http://www.w3.org/2000/svg">
  <!-- Origami folded icon representing folded steel -->
  <g transform="translate(0, 10)">
    <!-- Geometric folded shape with Japanese red accent on one facet -->
    <path d="M15 20 L25 10 L35 20 L25 30 Z" fill="#C41E3A" opacity="0.85"/>
    <path d="M25 10 L35 20 L35 30 L25 30 Z" fill="currentColor" opacity="0.6"/>
    <path d="M15 20 L25 30 L15 40 L5 30 Z" fill="currentColor" opacity="0.75"/>
    <path d="M25 30 L35 30 L35 40 L25 40 Z" fill="currentColor" opacity="0.5"/>
  </g>
  
  <!-- O -->
  <path d="M55 20C55 11.7157 61.7157 5 70 5C78.2843 5 85 11.7157 85 20C85 28.2843 78.2843 35 70 35C61.7157 35 55 28.2843 55 20ZM60 20C60 25.5228 64.4772 30 70 30C75.5228 30 80 25.5228 80 20C80 14.4772 75.5228 10 70 10C64.4772 10 60 14.4772 60 20Z" fill="currentColor"/>
  
  <!-- R -->
  <path d="M95 5H110C116.075 5 121 9.92487 121 16C121 20.4183 118.314 24.2026 114.5 25.7V25.8L122 35H115L108 26H100V35H95V5ZM100 21H110C113.314 21 116 18.3137 116 15C116 11.6863 113.314 9 110 9H100V21Z" fill="currentColor"/>
  
  <!-- I -->
  <path d="M132 5H137V35H132V5Z" fill="currentColor"/>
  
  <!-- Fe element notation - 26 and Fe for Iron from periodic table -->
  <text x="148" y="18" font-family="Arial, sans-serif" font-size="9" fill="#C41E3A" opacity="0.8">26</text>
  <text x="148" y="34" font-family="Arial, sans-serif" font-size="26" font-weight="600" fill="currentColor">Fe</text>
</svg>
